# xmcd CD database file
#
# Track frame offsets:
#	150
#	11875
#	17875
#	23507
#	32597
#	39335
#	50464
#	57992
#	69420
#	80902
#	94172
#	101775
#	112505
#	122127
#	135615
#	147107
#	155520
#	167807
#	182947
#	188952
#
# Disc length: 2743 seconds
#
# Revision: 0
# Processed by: cddbd v1.5.2PL0 Copyright (c) Steve Scherf et al.
# Submitted via: CDex 1.70beta2
#
DISCID=0e0ab514
DTITLE=Various Artist - Taas kaikki kauniit muistot... CD2
DYEAR=1994
DGENRE=Joululaulu
TTITLE0=Jouluevankeliumi - Tapiolan yhteiskoulun kuoro
TTITLE1=Enkeli taivaan - Tapiolan yhteiskoulun kuoro
TTITLE2=Nyt syntynyt on lapsonen - Tapiolan yhteiskoulun kuoro
TTITLE3=Ja neitsyt pikku poijuttansa - Jorma Hynninen
TTITLE4=Maa ja taivas riemuitkaa - Vox Aurea
TTITLE5=Enkelien joululaulu - Soile Isokoski
TTITLE6=Kautta tyynen, vienon yön - Oulun Madetojan lukion kuoro
TTITLE7=Nyt riemuiten tänne - Seppo Ruohonen
TTITLE8=Kuului laulu enkelten - Luostarivuoren musiikkiluokkien kuoro
TTITLE9=Hiljene maa - Philomela
TTITLE10=Kun Joulu valkeneepi - Savonlinnan oopperajuhlakuoro
TTITLE11=Jouluaamu - Oulun Madetojan lukion kuoro
TTITLE12=Tuikkikaa, oi Joulun tähtöset - Karita Mattila
TTITLE13=Kaikki kansat riemuitkaa - Koraalikuoro Psallite
TTITLE14=Gloria - Oulun Madetojan lukion kuoro
TTITLE15=Sydämeni Joulu - Philomela
TTITLE16=Tuo armon valkokyyhky - Ylioppilaskunnan laulajat
TTITLE17=Santa Lucia - Karita Mattila
TTITLE18=Katso, ihme taivainen - Tapiolan yhteiskoulun kuoro
TTITLE19=Maan kellot kaikuu - Philomela
EXTD=YEAR: 1994
EXTT0=
EXTT1=
EXTT2=
EXTT3=
EXTT4=
EXTT5=
EXTT6=
EXTT7=
EXTT8=
EXTT9=
EXTT10=
EXTT11=
EXTT12=
EXTT13=
EXTT14=
EXTT15=
EXTT16=
EXTT17=
EXTT18=
EXTT19=
PLAYORDER=
